<svg width="26" height="31" viewBox="0 0 26 31" fill="none" xmlns="http://www.w3.org/2000/svg">
<path d="M25.7632 22.1531C25.5958 22.638 25.4205 23.1008 25.2342 23.5446C24.7795 24.5933 24.2426 25.5583 23.6205 26.4444C22.7742 27.6542 22.0795 28.4912 21.5442 28.9556C20.7153 29.7184 19.8263 30.1101 18.8742 30.1306C18.1905 30.1306 17.3679 29.9364 16.4079 29.5431C15.4463 29.1498 14.5621 28.9556 13.7537 28.9556C12.9058 28.9556 11.9963 29.1498 11.0237 29.5431C10.0495 29.9364 9.26474 30.1433 8.66474 30.1622C7.75211 30.2017 6.84263 29.8006 5.93474 28.9556C5.35526 28.4502 4.63053 27.5831 3.76211 26.3559C2.83053 25.045 2.06474 23.5241 1.46474 21.7899C0.822105 19.9183 0.5 18.1052 0.5 16.3505C0.5 14.3399 0.934211 12.6057 1.80421 11.1527C2.4879 9.98553 3.39737 9.06475 4.53579 8.38877C5.67421 7.71279 6.90421 7.36848 8.22895 7.34637C8.95368 7.34637 9.90421 7.57064 11.0853 8.01129C12.2632 8.45352 13.0195 8.6778 13.3511 8.6778C13.5989 8.6778 14.4389 8.41562 15.8632 7.89284C17.21 7.40797 18.3468 7.20738 19.2784 7.28635C21.8016 7.4901 23.6963 8.48511 24.9579 10.2777C22.7016 11.6455 21.5853 13.5613 21.6074 16.0188C21.6279 17.933 22.3211 19.5266 23.6853 20.7917C24.3042 21.3777 24.9958 21.831 25.7632 22.1531ZM19.4158 0.164886C19.4363 0.365469 19.4458 0.566052 19.4458 0.765055C19.4458 2.26547 18.8979 3.66639 17.8068 4.96307C16.4884 6.50456 14.8937 7.39533 13.1647 7.25477C13.1426 7.07472 13.13 6.88519 13.13 6.68619C13.13 5.24578 13.7568 3.7043 14.87 2.44395C15.4258 1.80587 16.1332 1.2752 16.9889 0.85192C17.8447 0.434961 18.6547 0.204371 19.4158 0.164886Z" fill="#707070"/>
</svg>
