<svg width="97" height="98" viewBox="0 0 97 98" fill="none" xmlns="http://www.w3.org/2000/svg">
<circle cx="48.4373" cy="48.9083" r="48.4128" fill="#F7E8FF"/>
<circle cx="48.4373" cy="48.9083" r="39.1361" fill="#F3DAFF"/>
<path d="M59.8974 38.7338L59.5401 39.0886L59.8974 39.4434L61.9242 41.4559L62.2765 41.1011L61.9375 41.4686C62.0316 41.5555 62.1068 41.6609 62.1581 41.7782C62.2095 41.8955 62.2361 42.0222 62.2361 42.1502C62.2361 42.2783 62.2095 42.405 62.1581 42.5223C62.1068 42.6396 62.0316 42.745 61.9375 42.8318L61.9309 42.838L61.9244 42.8443C61.8378 42.9303 61.735 42.9983 61.622 43.0444C61.5091 43.0906 61.3881 43.114 61.266 43.1133V43.1132L61.2602 43.1133C61.1382 43.114 61.0172 43.0906 60.9042 43.0444C60.7918 42.9985 60.6894 42.9309 60.6031 42.8455C60.6026 42.8451 60.6022 42.8447 60.6018 42.8443L58.592 40.8202L58.2384 40.4641L57.8836 40.8189L55.8568 42.8458L55.4955 43.207L55.8645 43.5604L57.8878 45.4983C57.9734 45.5839 58.0415 45.6855 58.088 45.7973C58.1351 45.9103 58.1594 46.0315 58.1594 46.1539C58.1594 46.2763 58.1351 46.3976 58.088 46.5106C58.041 46.6236 57.972 46.7261 57.885 46.8123L58.2175 47.1475L57.885 46.8124C57.7984 46.8983 57.6956 46.9663 57.5826 47.0124C57.4697 47.0586 57.3487 47.082 57.2266 47.0813V47.0812L57.2208 47.0813C57.0988 47.082 56.9778 47.0586 56.8648 47.0124C56.7524 46.9665 56.65 46.8989 56.5636 46.8135C56.5632 46.8131 56.5628 46.8127 56.5624 46.8124L54.5526 44.7882L54.1986 44.4318L53.8438 44.7873L46.8784 51.767L46.5906 52.0555L46.8149 52.3956C47.7204 53.768 48.0842 55.4277 47.8358 57.053C47.5874 58.6784 46.7446 60.1536 45.4705 61.193C44.1965 62.2324 42.582 62.7618 40.9399 62.6787C39.2978 62.5956 37.745 61.906 36.5824 60.7433C35.4197 59.5807 34.7301 58.0279 34.647 56.3858C34.5639 54.7437 35.0933 53.1292 36.1327 51.8552C37.1721 50.5811 38.6473 49.7383 40.2727 49.4899C41.898 49.2415 43.5577 49.6053 44.9301 50.5108L45.2706 50.7354L45.559 50.447L60.6033 35.4027C60.7783 35.2277 61.0156 35.1294 61.2631 35.1294C61.5106 35.1294 61.748 35.2277 61.923 35.4027C62.098 35.5777 62.1963 35.8151 62.1963 36.0626C62.1963 36.3098 62.0982 36.5469 61.9236 36.7219C61.9234 36.7221 61.9232 36.7223 61.923 36.7224L59.8974 38.7338ZM38.6235 60.0216C39.4099 60.547 40.3345 60.8275 41.2803 60.8275C42.5485 60.8275 43.7649 60.3237 44.6617 59.4269C45.5585 58.5301 46.0623 57.3137 46.0623 56.0454C46.0623 55.0996 45.7818 54.1751 45.2564 53.3887C44.7309 52.6023 43.9841 51.9894 43.1103 51.6274C42.2365 51.2655 41.275 51.1708 40.3473 51.3553C39.4197 51.5398 38.5676 51.9952 37.8988 52.664C37.2301 53.3328 36.7746 54.1849 36.5901 55.1125C36.4056 56.0401 36.5003 57.0016 36.8622 57.8755C37.2242 58.7493 37.8371 59.4961 38.6235 60.0216Z" fill="#202020" stroke="#202020"/>
</svg>
