<svg xmlns="http://www.w3.org/2000/svg" viewBox="0 0 242.82 200.8"><defs><style>.cls-1{fill:#3063cc;}.cls-2{fill:#7ca7ff;}.cls-3{fill:#0c1f70;}</style></defs><g id="Layer_2" data-name="Layer 2"><g id="Layer_1-2" data-name="Layer 1"><path class="cls-1" d="M238.48,52.3l-108.08,145h-8.08L4.58,53.82,40.36,3.13H206.27Z"/><path class="cls-2" d="M240.13,52.27,163.91,63.49l-35,133.88h3.27Z"/><path class="cls-2" d="M7.27,52.27,83.49,63.49l38.67,133.88h-3.23Z"/><path class="cls-2" d="M165.22,66.45,122.62,2.93l82.5,1-42.6,62.47Z"/><path class="cls-2" d="M84.76,66.45,42.17,2.93l82.49,1L82.07,66.45Z"/><path class="cls-3" d="M113.74,195.73,0,54.11,38.21,0H208.5l34.32,52.63L136.51,195.4a13,13,0,0,1-4.84,3.91,15.68,15.68,0,0,1-12.93.19A13.2,13.2,0,0,1,113.74,195.73ZM9.16,53.88,120.08,192a6.21,6.21,0,0,0,2.23,1.55,7.17,7.17,0,0,0,5.58-.09,6.09,6.09,0,0,0,2.16-1.62L233.94,52.37,204,6.58H42.4Z"/><path class="cls-3" d="M119.92,1.26,77.33,64.79,84,68.06,126.6,4.53Z"/><path class="cls-3" d="M126.62,1.34l-6.68,3.27,42.6,63.53,6.67-3.27Z"/><path class="cls-3" d="M202.44,2.25,159.85,64.72,166.5,68,209.09,5.57Z"/><path class="cls-3" d="M44.13,2.27,37.49,5.58,80.1,68.07l6.65-3.31Z"/><path class="cls-3" d="M85.64,64.55l-7.43,1.72,41.58,131.94,7.43-1.71Z"/><path class="cls-3" d="M160.28,64.76,123.55,196.7l7.48,1.52L167.77,66.28Z"/><path class="cls-3" d="M83,65.79,4,56.12l1.07-6.58c96.66,11.84,60.91,9.64,156.8,9.64L237.78,48l1.31,6.58C145.05,68.36,180.68,65.79,83,65.79Z"/></g></g></svg>